<svg width="24" height="24" viewBox="0 0 24 24" fill="none" xmlns="http://www.w3.org/2000/svg">
<path fill-rule="evenodd" clip-rule="evenodd" d="M12.0051 18.3919C15.5404 18.3919 18.4063 15.526 18.4063 11.9907C18.4063 8.45545 15.5404 5.58955 12.0051 5.58955C8.46986 5.58955 5.60396 8.45545 5.60396 11.9907C5.60396 15.526 8.46986 18.3919 12.0051 18.3919ZM12.0051 19.9922C16.4242 19.9922 20.0066 16.4098 20.0066 11.9907C20.0066 7.57164 16.4242 3.98926 12.0051 3.98926C7.58604 3.98926 4.00366 7.57164 4.00366 11.9907C4.00366 16.4098 7.58604 19.9922 12.0051 19.9922Z" fill="#4285F4"/>
<path fill-rule="evenodd" clip-rule="evenodd" d="M12.0052 10.3907C12.4471 10.3907 12.8053 10.749 12.8053 11.1909V15.1923C12.8053 15.6342 12.4471 15.9925 12.0052 15.9925C11.5633 15.9925 11.205 15.6342 11.205 15.1923V11.1909C11.205 10.749 11.5633 10.3907 12.0052 10.3907Z" fill="#4285F4"/>
<circle cx="12.0056" cy="8.79065" r="0.800537" fill="#4285F4"/>
</svg>
