<svg width="52" height="24" viewBox="0 0 52 24" fill="none" xmlns="http://www.w3.org/2000/svg">
<rect width="51.585" height="24.0007" rx="3.42857" fill="#1E3859"/>
<path d="M8 17.9501V9.30824C8.0004 8.94862 8.09497 8.59538 8.2743 8.28367C8.45364 7.97196 8.71147 7.71265 9.02215 7.53155L14.5975 4.28296C14.9101 4.09944 15.2656 4.00183 15.628 4.00003C15.9905 3.99822 16.3469 4.09228 16.6613 4.27267C16.9757 4.45306 17.2367 4.71336 17.418 5.02719C17.5994 5.34102 17.6945 5.69721 17.6937 6.05965V6.10425L12.2633 9.26363C11.9534 9.44432 11.6962 9.70312 11.5175 10.0142C11.3388 10.3253 11.2448 10.6778 11.2449 11.0366V19.6264L11.0813 19.7231C10.7696 19.9039 10.4158 19.9994 10.0554 20.0001C9.69502 20.0007 9.34084 19.9064 9.02848 19.7267C8.71613 19.547 8.45662 19.2882 8.27607 18.9763C8.09552 18.6644 8.0003 18.3105 8 17.9501Z" fill="#71C5D8"/>
<path d="M12.1589 9.33008C11.7409 9.61158 11.4376 10.0336 11.304 10.5195C11.2643 10.6889 11.2431 10.8621 11.2409 11.0361V19.626L11.081 19.7226C10.7696 19.9037 10.4159 19.9995 10.0556 20.0002C9.69537 20.0009 9.34128 19.9066 9.02911 19.7268C8.71694 19.547 8.45773 19.288 8.27765 18.9759C8.09756 18.6639 8.00297 18.3099 8.00342 17.9496V14.2327C8.00342 11.4933 11.501 9.75381 12.1589 9.33008Z" fill="url(#paint0_linear_711_1531)"/>
<path d="M23.3898 15.366C23.5952 15.366 23.7912 15.3473 23.9778 15.31C24.1738 15.2633 24.3558 15.212 24.5238 15.156V16.472C24.3278 16.556 24.0898 16.626 23.8098 16.682C23.5298 16.7473 23.2172 16.78 22.8718 16.78C22.4425 16.78 22.0598 16.71 21.7238 16.57C21.3878 16.4207 21.1218 16.1687 20.9258 15.814C20.7392 15.4593 20.6458 14.9647 20.6458 14.33V10.382H19.6938V9.612L20.7578 8.996L21.3178 7.386H22.4938V9.052H24.4538V10.382H22.4938V14.316C22.4938 14.6707 22.5732 14.9367 22.7318 15.114C22.8998 15.282 23.1192 15.366 23.3898 15.366Z" fill="white"/>
<path d="M28.8023 8.912C29.7169 8.912 30.4169 9.12667 30.9023 9.556C31.3876 9.976 31.6303 10.6387 31.6303 11.544V16.64H30.3283L29.9643 15.59H29.9083C29.7029 15.8607 29.4929 16.0893 29.2783 16.276C29.0636 16.4533 28.8163 16.5793 28.5363 16.654C28.2563 16.738 27.9203 16.78 27.5283 16.78C27.1083 16.78 26.7303 16.696 26.3943 16.528C26.0583 16.36 25.7923 16.1033 25.5963 15.758C25.4003 15.4033 25.3023 14.96 25.3023 14.428C25.3023 13.644 25.5729 13.056 26.1143 12.664C26.6556 12.2627 27.4676 12.0433 28.5503 12.006L29.7683 11.964V11.586C29.7683 11.1007 29.6656 10.7553 29.4603 10.55C29.2549 10.3447 28.9749 10.242 28.6203 10.242C28.2843 10.242 27.9436 10.298 27.5983 10.41C27.2623 10.522 26.9309 10.6527 26.6043 10.802L26.0303 9.57C26.4129 9.374 26.8376 9.21533 27.3043 9.094C27.7709 8.97267 28.2703 8.912 28.8023 8.912ZM28.9843 13.084C28.3216 13.112 27.8596 13.2473 27.5983 13.49C27.3369 13.7233 27.2063 14.0407 27.2063 14.442C27.2063 14.7967 27.2949 15.0533 27.4723 15.212C27.6589 15.3707 27.9016 15.45 28.2003 15.45C28.6389 15.45 29.0123 15.3053 29.3203 15.016C29.6283 14.7173 29.7823 14.2787 29.7823 13.7V13.056L28.9843 13.084Z" fill="white"/>
<path d="M35.3203 16.64H33.4583V6H35.3203V16.64Z" fill="white"/>
<path d="M36.1931 9.052H38.1811L39.5391 13.336C39.6044 13.5133 39.6557 13.6907 39.6931 13.868C39.7397 14.0453 39.7771 14.2227 39.8051 14.4C39.8424 14.5773 39.8704 14.7547 39.8891 14.932H39.9311C39.9684 14.6987 40.0151 14.442 40.0711 14.162C40.1364 13.882 40.2111 13.6067 40.2951 13.336L41.6251 9.052H43.5851L40.5751 17.634C40.3977 18.138 40.1737 18.5673 39.9031 18.922C39.6417 19.2767 39.3197 19.5427 38.9371 19.72C38.5637 19.9067 38.1157 20 37.5931 20C37.3784 20 37.1871 19.986 37.0191 19.958C36.8604 19.9393 36.7204 19.916 36.5991 19.888V18.488C36.6924 18.5067 36.8091 18.5253 36.9491 18.544C37.0891 18.5627 37.2337 18.572 37.3831 18.572C37.6537 18.572 37.8824 18.5113 38.0691 18.39C38.2651 18.278 38.4284 18.1193 38.5591 17.914C38.6897 17.718 38.7877 17.4893 38.8531 17.228L39.0491 16.612L36.1931 9.052Z" fill="white"/>
<defs>
<linearGradient id="paint0_linear_711_1531" x1="9.75409" y1="11.0956" x2="10.1853" y2="14.5486" gradientUnits="userSpaceOnUse">
<stop stop-color="#1E3859"/>
<stop offset="0.53" stop-color="#2F5A85"/>
<stop offset="1" stop-color="#3D75A7"/>
</linearGradient>
</defs>
</svg>
