<svg width="40" height="29" viewBox="0 0 40 29" fill="none" xmlns="http://www.w3.org/2000/svg">
<g clip-path="url(#clip0_607_327)">
<path d="M33.1337 4.34863H6.86657C6.75717 4.34863 6.64758 4.34863 6.53838 4.34927C6.44606 4.34993 6.35397 4.35095 6.26187 4.35347C6.06101 4.3589 5.85843 4.37075 5.66009 4.4064C5.45857 4.44266 5.27106 4.50182 5.08812 4.59496C4.90827 4.68642 4.74362 4.80604 4.60094 4.94879C4.45819 5.09154 4.33856 5.25592 4.24712 5.43595C4.15396 5.61889 4.09477 5.80647 4.05875 6.00814C4.02292 6.20654 4.01099 6.40908 4.00557 6.60972C4.0031 6.70182 4.00204 6.79392 4.00144 6.886C4.0008 6.99543 4.00101 7.10479 4.00101 7.21443V21.9681C4.00101 22.0777 4.0008 22.1869 4.00144 22.2965C4.00204 22.3886 4.0031 22.4807 4.00557 22.5728C4.01099 22.7733 4.02292 22.9758 4.05875 23.1741C4.09477 23.3759 4.15396 23.5634 4.24712 23.7463C4.33856 23.9264 4.45819 24.091 4.60094 24.2335C4.74362 24.3765 4.90827 24.4961 5.08812 24.5873C5.27106 24.6807 5.45857 24.7399 5.66009 24.7761C5.85843 24.8116 6.06101 24.8236 6.26187 24.8291C6.35397 24.8311 6.44606 24.8324 6.53838 24.8328C6.64758 24.8337 6.75717 24.8337 6.86657 24.8337H33.1337C33.2429 24.8337 33.3525 24.8337 33.4617 24.8328C33.5538 24.8324 33.6459 24.8311 33.7384 24.8291C33.9388 24.8236 34.1414 24.8116 34.3402 24.7761C34.5415 24.7399 34.729 24.6807 34.912 24.5873C35.092 24.4961 35.2562 24.3765 35.3991 24.2335C35.5417 24.091 35.6613 23.9264 35.753 23.7463C35.8463 23.5634 35.9055 23.3759 35.9413 23.1741C35.9772 22.9758 35.9888 22.7733 35.9942 22.5728C35.9968 22.4807 35.998 22.3886 35.9984 22.2965C35.9993 22.1869 35.9993 22.0777 35.9993 21.9681V7.21443C35.9993 7.10479 35.9993 6.99543 35.9984 6.886C35.998 6.79392 35.9968 6.70182 35.9942 6.60972C35.9888 6.40908 35.9772 6.20654 35.9413 6.00814C35.9055 5.80647 35.8463 5.61889 35.753 5.43595C35.6613 5.25592 35.5417 5.09154 35.3991 4.94879C35.2562 4.80604 35.092 4.68642 34.912 4.59496C34.729 4.50182 34.5415 4.44266 34.3402 4.4064C34.1414 4.37075 33.9388 4.3589 33.7384 4.35347C33.6459 4.35095 33.5538 4.34993 33.4617 4.34927C33.3525 4.34863 33.2429 4.34863 33.1337 4.34863Z" fill="black"/>
<path d="M33.134 5.03223L33.4571 5.03285C33.5447 5.03346 33.6322 5.03441 33.7202 5.03681C33.8733 5.04095 34.0524 5.04924 34.2194 5.07916C34.3645 5.1053 34.4862 5.14505 34.603 5.20451C34.7183 5.26311 34.824 5.33989 34.9162 5.43201C35.0088 5.52474 35.0857 5.63057 35.1451 5.74716C35.2042 5.86305 35.2437 5.98418 35.2697 6.13037C35.2996 6.29551 35.3078 6.4751 35.312 6.62915C35.3144 6.71611 35.3155 6.80306 35.3159 6.89209C35.3168 6.99975 35.3168 7.10735 35.3168 7.21522V21.9689C35.3168 22.0767 35.3168 22.1841 35.3159 22.2941C35.3155 22.381 35.3144 22.468 35.312 22.5551C35.3078 22.7089 35.2996 22.8884 35.2693 23.0555C35.2437 23.1997 35.2042 23.3208 35.1448 23.4373C35.0856 23.5536 35.0088 23.6593 34.9166 23.7515C34.8239 23.8443 34.7186 23.9208 34.6019 23.98C34.4859 24.0391 34.3644 24.0788 34.2207 24.1047C34.0504 24.1351 33.8638 24.1434 33.7233 24.1472C33.6348 24.1492 33.5468 24.1504 33.4567 24.1508C33.3493 24.1517 33.2414 24.1516 33.134 24.1516H6.86686C6.86543 24.1516 6.86404 24.1516 6.86259 24.1516C6.75638 24.1516 6.64996 24.1516 6.54182 24.1508C6.45364 24.1504 6.36566 24.1492 6.2806 24.1473C6.13685 24.1434 5.95013 24.1351 5.78118 24.1049C5.63626 24.0788 5.51475 24.0391 5.39729 23.9792C5.28171 23.9206 5.17648 23.8441 5.08367 23.7511C4.99157 23.6592 4.91504 23.5538 4.85586 23.4373C4.79663 23.321 4.757 23.1995 4.73094 23.0536C4.70082 22.8868 4.69255 22.708 4.68841 22.5552C4.68605 22.4678 4.68507 22.3803 4.68451 22.2934L4.68408 22.0366L4.6841 21.9689V7.21522L4.68408 7.14744L4.68449 6.89127C4.68507 6.8038 4.68605 6.71634 4.68841 6.62894C4.69255 6.47601 4.70082 6.29715 4.73119 6.129C4.75702 5.98442 4.79663 5.8629 4.85617 5.74596C4.91489 5.63037 4.99156 5.52486 5.08414 5.4323C5.17635 5.34005 5.28192 5.26336 5.39824 5.2042C5.51444 5.14503 5.63618 5.1053 5.78111 5.07922C5.9481 5.04922 6.12732 5.04095 6.28082 5.03679C6.36831 5.03441 6.45581 5.03346 6.54265 5.03286L6.86686 5.03223H33.134Z" fill="white"/>
<path d="M12.7359 11.2385C13.0098 10.8959 13.1957 10.4359 13.1467 9.96582C12.7457 9.98576 12.2564 10.2303 11.9732 10.5732C11.7188 10.8668 11.4937 11.3461 11.5524 11.7965C12.0025 11.8355 12.4522 11.5715 12.7359 11.2385Z" fill="black"/>
<path d="M13.1437 11.8844C12.4896 11.8455 11.9335 12.2557 11.6211 12.2557C11.3086 12.2557 10.8303 11.9041 10.3129 11.9136C9.63956 11.9234 9.01476 12.3042 8.67306 12.9097C7.97025 14.121 8.48759 15.9179 9.17104 16.9045C9.50294 17.3926 9.90294 17.93 10.43 17.9107C10.928 17.8911 11.1232 17.5882 11.7285 17.5882C12.3334 17.5882 12.5092 17.9107 13.0363 17.9009C13.583 17.8911 13.9247 17.4126 14.2566 16.924C14.6374 16.3676 14.7933 15.8304 14.8031 15.8009C14.7933 15.7911 13.7489 15.3905 13.7393 14.1892C13.7294 13.1834 14.5592 12.7049 14.5982 12.6752C14.1296 11.9822 13.3975 11.9041 13.1437 11.8844Z" fill="black"/>
<path d="M18.8351 10.5234C20.2564 10.5234 21.2462 11.5032 21.2462 12.9296C21.2462 14.3611 20.2361 15.3459 18.7995 15.3459H17.2258V17.8484H16.0889V10.5234L18.8351 10.5234ZM17.2258 14.3915H18.5304C19.5203 14.3915 20.0837 13.8586 20.0837 12.9346C20.0837 12.0108 19.5203 11.4829 18.5355 11.4829H17.2258V14.3915Z" fill="black"/>
<path d="M21.542 16.3299C21.542 15.3956 22.2579 14.8219 23.5274 14.7508L24.9895 14.6645V14.2533C24.9895 13.6592 24.5884 13.3038 23.9183 13.3038C23.2835 13.3038 22.8874 13.6084 22.7911 14.0857H21.7553C21.8162 13.121 22.6387 12.4102 23.9589 12.4102C25.2536 12.4102 26.0811 13.0956 26.0811 14.1669V17.848H25.0301V16.9697H25.0048C24.6951 17.5637 24.0198 17.9394 23.3191 17.9394C22.2732 17.9394 21.542 17.2895 21.542 16.3299ZM24.9895 15.8476V15.4262L23.6744 15.5074C23.0195 15.5531 22.6489 15.8425 22.6489 16.2995C22.6489 16.7665 23.0347 17.0712 23.6237 17.0712C24.3904 17.0712 24.9895 16.5432 24.9895 15.8476Z" fill="black"/>
<path d="M27.0714 19.8125V18.9242C27.1525 18.9444 27.3352 18.9444 27.4266 18.9444C27.9342 18.9444 28.2084 18.7313 28.3758 18.1831C28.3758 18.1729 28.4723 17.8582 28.4723 17.8531L26.5435 12.5078H27.7311L29.0816 16.8531H29.1017L30.4522 12.5078H31.6095L29.6093 18.1272C29.1527 19.4217 28.6247 19.8379 27.5181 19.8379C27.4266 19.8379 27.1525 19.8277 27.0714 19.8125Z" fill="black"/>
</g>
<defs>
<clipPath id="clip0_607_327">
<rect width="31.9983" height="20.485" fill="white" transform="translate(4.00098 4.34473)"/>
</clipPath>
</defs>
</svg>
