<svg width="40" height="29" viewBox="0 0 40 29" fill="none" xmlns="http://www.w3.org/2000/svg">
<g clip-path="url(#clip0_607_349)">
<path d="M36.001 2.56445H4V26.6098H36.001V2.56445Z" fill="white"/>
<path d="M35.1718 3.38281H4.82812V9.33114H35.1718V3.38281Z" fill="#00549A"/>
<path d="M35.1718 9.90918H4.82812V19.2655H35.1718V9.90918Z" fill="#00549A"/>
<path d="M35.1718 19.8428H4.82812V25.7917H35.1718V19.8428Z" fill="#00549A"/>
<path d="M31.2558 7.90723H30.3623V8.45589H31.2558V7.90723Z" fill="white"/>
<path d="M30.1147 7.90723H29.2212V8.45589H30.1147V7.90723Z" fill="white"/>
<path d="M16.7171 6.87712H16.1712V6.10319H15.07V6.87712H7.11388L7.01736 6.67305L7.77148 5.7034V5.00977H6.68828L5.49219 6.54703L6.17349 7.98449H17.8183V6.10319H16.7171V6.87712Z" fill="white"/>
<path d="M17.7397 5.09375H16.8462V5.64242H17.7397V5.09375Z" fill="white"/>
<path d="M9.36034 5.25977H8.4668V5.80843H9.36034V5.25977Z" fill="white"/>
<path d="M10.5205 5.25977H9.62695V5.80843H10.5205V5.25977Z" fill="white"/>
<path d="M33.82 5.88087H30.5653L30.0703 5.47327H33.5271L33.1664 4.85156H28.8262L28.7568 5.07181L30.2475 6.29906H32.8124V6.62525H30.0409L29.1 5.8502H27.2203V7.49118H24.1254V6.81873H26.7355V5.8502H22.5161V8.2863H28.3346V6.99158L28.991 7.53188H33.8629L34.5459 6.84103V6.61577L33.82 5.88087Z" fill="white"/>
<path d="M20.9656 6.40332H18.9048V7.29211H20.9656V6.40332Z" fill="white"/>
<path d="M31.1586 18.3411L25.5879 14.2016L31.061 10.8906H21.2574L16.4623 13.7917V10.8906H9.625V18.3411H16.4623V14.4625L20.8504 18.3411H31.1586Z" fill="#FFF200"/>
<path d="M8.26367 24.9918V21.2995H9.24358V21.7377C9.3738 21.5665 9.54352 21.4285 9.73861 21.3351C9.93781 21.244 10.1552 21.1982 10.3748 21.2013C10.7868 21.2013 11.0956 21.3071 11.301 21.5186C11.5065 21.7301 11.609 22.0488 11.6087 22.4748V24.9912H10.6084V22.7609C10.6084 22.4962 10.5631 22.3072 10.4724 22.1938C10.3817 22.0804 10.2346 22.0247 10.031 22.0265C9.79468 22.0265 9.60784 22.0961 9.47049 22.2351C9.33314 22.3741 9.26427 22.5637 9.2639 22.8038V24.9946L8.26367 24.9918Z" fill="white"/>
<path d="M20.6338 23.8252H21.6306C21.5444 24.1925 21.3279 24.517 21.0204 24.7402C20.7145 24.9611 20.3414 25.0715 19.9011 25.0715C19.3603 25.0715 18.9319 24.8921 18.6158 24.5334C18.2997 24.1747 18.1415 23.6885 18.1411 23.0747C18.1411 22.4703 18.2969 21.9938 18.6085 21.6451C18.9201 21.2964 19.3464 21.1221 19.8876 21.1221C20.4607 21.1221 20.903 21.2934 21.2146 21.6362C21.5262 21.9789 21.682 22.4675 21.682 23.1021C21.682 23.1718 21.682 23.2247 21.682 23.2599C21.681 23.2933 21.6782 23.3266 21.6735 23.3597H19.1758C19.1901 23.6496 19.2618 23.8682 19.3908 24.0154C19.5199 24.1626 19.7062 24.2369 19.9496 24.2384C20.0973 24.2444 20.2437 24.2096 20.3724 24.1381C20.4898 24.0625 20.581 23.9534 20.6338 23.8252ZM19.1758 22.7101H20.6473C20.6383 22.4614 20.5711 22.2713 20.4464 22.1413C20.3216 22.0114 20.1421 21.9462 19.9084 21.9462C19.6906 21.9462 19.5192 22.0118 19.3942 22.143C19.2695 22.2752 19.1967 22.4647 19.1758 22.7112V22.7101Z" fill="white"/>
<path d="M31.6149 25.4499C31.523 25.4521 31.4135 25.456 31.2863 25.4616C31.1593 25.4672 31.0786 25.4705 31.0442 25.4705C30.6609 25.4705 30.3996 25.3997 30.2585 25.2581C30.1173 25.1164 30.0468 24.8376 30.0468 24.4217V22.4239H29.5518V21.7313H30.0468V20.7227H31.0374V21.7313H31.6154V22.4239H31.0374V24.4685C31.0374 24.5655 31.0594 24.6297 31.1029 24.6603C31.1464 24.691 31.2361 24.7061 31.371 24.7061H31.6154L31.6149 25.4499Z" fill="white"/>
</g>
<defs>
<clipPath id="clip0_607_349">
<rect width="32.001" height="24.0454" fill="white" transform="translate(4 2.56445)"/>
</clipPath>
</defs>
</svg>
