<svg width="40" height="29" viewBox="0 0 40 29" fill="none" xmlns="http://www.w3.org/2000/svg">
<g clip-path="url(#clip0_607_320)">
<path d="M16.1516 9.66257L11.9616 19.537H9.22792L7.16601 11.6562C7.04083 11.1708 6.93265 10.993 6.55127 10.7885C5.9297 10.4554 4.90325 10.1429 4.00098 9.94874L4.06148 9.66257H8.462C9.0229 9.66257 9.52712 10.0314 9.65447 10.6694L10.7434 16.383L13.4346 9.66257H16.1516ZM26.8625 16.3135C26.8735 13.7072 23.214 13.5638 23.2392 12.3993C23.2471 12.045 23.5893 11.6682 24.3362 11.5721C24.7067 11.5242 25.7277 11.4876 26.8865 12.014L27.3407 9.91992C26.7176 9.6955 25.917 9.48145 24.9209 9.48145C22.3648 9.48145 20.5659 10.8237 20.5507 12.7458C20.5341 14.1674 21.8342 14.9607 22.8145 15.4331C23.8225 15.9169 24.1607 16.2277 24.1568 16.6605C24.1497 17.3229 23.3529 17.6155 22.6083 17.6268C21.3082 17.6466 20.5542 17.2794 19.953 17.0033L19.4843 19.1667C20.0885 19.4405 21.2038 19.6794 22.3601 19.6914C25.0771 19.6914 26.8541 18.3658 26.8625 16.3129M33.6123 19.537H36.0039L33.9163 9.66257H31.7087C31.473 9.66056 31.242 9.72855 31.0459 9.85773C30.8497 9.98691 30.6974 10.1713 30.6086 10.3871L26.7276 19.537H29.4431L29.9822 18.062H33.2992L33.6123 19.537ZM30.7268 16.0381L32.0879 12.33L32.8713 16.0377L30.7268 16.0381ZM19.8465 9.66257L17.7081 19.537H15.1221L17.2614 9.66257H19.8465Z" fill="#1434CB"/>
</g>
<defs>
<clipPath id="clip0_607_320">
<rect width="32.0039" height="10.21" fill="white" transform="translate(4 9.48145)"/>
</clipPath>
</defs>
</svg>
