<svg width="40" height="29" viewBox="0 0 40 29" fill="none" xmlns="http://www.w3.org/2000/svg">
<path d="M24.289 6.78906H15.6113V22.3831H24.289V6.78906Z" fill="#FF5F00"/>
<path d="M16.1625 14.5873C16.1611 13.0855 16.5014 11.603 17.1577 10.2522C17.8139 8.90132 18.7689 7.71747 19.9503 6.79026C18.4873 5.6403 16.7303 4.92515 14.88 4.72656C13.0298 4.52797 11.161 4.85395 9.48726 5.66725C7.81353 6.48054 6.40238 7.74834 5.41511 9.32572C4.42784 10.9031 3.9043 12.7264 3.9043 14.5873C3.9043 16.4482 4.42784 18.2715 5.41511 19.8489C6.40238 21.4262 7.81353 22.694 9.48726 23.5073C11.161 24.3206 13.0298 24.6466 14.88 24.448C16.7303 24.2494 18.4873 23.5343 19.9503 22.3843C18.7689 21.4571 17.8139 20.2733 17.1577 18.9224C16.5014 17.5716 16.1611 16.0891 16.1625 14.5873Z" fill="#EB001B"/>
<path d="M35.9957 14.5873C35.9958 16.4481 35.4723 18.2714 34.4851 19.8488C33.4979 21.4262 32.0868 22.694 30.4131 23.5073C28.7394 24.3206 26.8706 24.6466 25.0204 24.448C23.1702 24.2494 21.4132 23.5343 19.9502 22.3843C21.1306 21.4562 22.0848 20.2721 22.741 18.9215C23.3971 17.5709 23.738 16.0889 23.738 14.5873C23.738 13.0857 23.3971 11.6037 22.741 10.2531C22.0848 8.90244 21.1306 7.71841 19.9502 6.79026C21.4132 5.64029 23.1702 4.92515 25.0204 4.72656C26.8706 4.52797 28.7394 4.85396 30.4131 5.66727C32.0868 6.48057 33.4979 7.74837 34.4851 9.32575C35.4723 10.9031 35.9958 12.7264 35.9957 14.5873Z" fill="#F79E1B"/>
</svg>
